<svg xmlns="http://www.w3.org/2000/svg" xmlns:xlink="http://www.w3.org/1999/xlink" viewBox="0 0 275 99.56"><defs><style>.cls-1{fill:url(#Degradado_sin_nombre_8);}.cls-2{fill:url(#Nueva_muestra_de_degradado_1);}.cls-3{fill:url(#Nueva_muestra_de_degradado_2);}.cls-4{fill:url(#Nueva_muestra_de_degradado_2-2);}.cls-5{fill:url(#Degradado_sin_nombre_10);}.cls-6{fill:url(#Degradado_sin_nombre_15);}.cls-7{fill:url(#Degradado_sin_nombre_12);}.cls-8{fill:url(#Nueva_muestra_de_degradado_1-2);}.cls-9{fill:url(#Nueva_muestra_de_degradado_1-3);}.cls-10{fill:url(#Nueva_muestra_de_degradado_1-4);}</style><linearGradient id="Degradado_sin_nombre_8" x1="221.33" y1="99.66" x2="235.05" y2="76.44" gradientUnits="userSpaceOnUse"><stop offset="0.03" stop-color="#36dea2"/><stop offset="0.24" stop-color="#35dba0"/><stop offset="0.4" stop-color="#32d19a"/><stop offset="0.55" stop-color="#2cc190"/><stop offset="0.68" stop-color="#24aa82"/><stop offset="0.81" stop-color="#198c70"/><stop offset="0.93" stop-color="#0d685b"/><stop offset="1" stop-color="#05524d"/></linearGradient><linearGradient id="Nueva_muestra_de_degradado_1" x1="235.68" y1="111.52" x2="256.32" y2="76.23" gradientUnits="userSpaceOnUse"><stop offset="0.01" stop-color="#ffc100"/><stop offset="0.29" stop-color="#ffbe00"/><stop offset="0.5" stop-color="#ffb400"/><stop offset="0.69" stop-color="#ffa400"/><stop offset="0.86" stop-color="#ff8d00"/><stop offset="1" stop-color="#ff7500"/></linearGradient><linearGradient id="Nueva_muestra_de_degradado_2" x1="193.8" y1="92.44" x2="239.27" y2="15.47" gradientUnits="userSpaceOnUse"><stop offset="0.03" stop-color="#36dea2"/><stop offset="0.17" stop-color="#34d99f"/><stop offset="0.34" stop-color="#2fca96"/><stop offset="0.52" stop-color="#27b287"/><stop offset="0.72" stop-color="#1b9073"/><stop offset="0.92" stop-color="#0c6558"/><stop offset="1" stop-color="#05524d"/></linearGradient><linearGradient id="Nueva_muestra_de_degradado_2-2" x1="11.37" y1="78.33" x2="59.08" y2="-2.43" xlink:href="#Nueva_muestra_de_degradado_2"/><linearGradient id="Degradado_sin_nombre_10" x1="52.59" y1="91.52" x2="31.2" y2="53.03" xlink:href="#Nueva_muestra_de_degradado_2"/><linearGradient id="Degradado_sin_nombre_15" x1="162.87" y1="-6.5" x2="177.65" y2="100.54" gradientUnits="userSpaceOnUse"><stop offset="0" stop-color="#ffc100"/><stop offset="0.25" stop-color="#ffbd00"/><stop offset="0.47" stop-color="#ffb300"/><stop offset="0.67" stop-color="#ffa100"/><stop offset="0.87" stop-color="#ff8700"/><stop offset="0.99" stop-color="#ff7500"/></linearGradient><linearGradient id="Degradado_sin_nombre_12" x1="128.52" y1="72.42" x2="158.5" y2="18.48" gradientUnits="userSpaceOnUse"><stop offset="0" stop-color="#ffc100"/><stop offset="0.32" stop-color="#ffbe00"/><stop offset="0.52" stop-color="#ffb600"/><stop offset="0.7" stop-color="#ffa700"/><stop offset="0.85" stop-color="#ff9200"/><stop offset="0.99" stop-color="#ff7800"/><stop offset="1" stop-color="#ff7500"/></linearGradient><linearGradient id="Nueva_muestra_de_degradado_1-2" x1="84.25" y1="103.03" x2="114.56" y2="16.97" xlink:href="#Nueva_muestra_de_degradado_1"/><linearGradient id="Nueva_muestra_de_degradado_1-3" x1="84.15" y1="8.95" x2="128.99" y2="31.83" xlink:href="#Nueva_muestra_de_degradado_1"/><linearGradient id="Nueva_muestra_de_degradado_1-4" x1="193.71" y1="112.77" x2="271.12" y2="28.9" xlink:href="#Nueva_muestra_de_degradado_1"/></defs><g id="Capa_2" data-name="Capa 2"><g id="Capa_1-2" data-name="Capa 1"><rect class="cls-1" x="220" y="77.56" width="15.78" height="22"/><rect class="cls-2" x="241.22" y="77.56" width="15.78" height="22"/><polygon class="cls-3" points="228 0 202 77.56 223 77.56 238.5 31.32 228 0"/><path class="cls-4" d="M49.63,18.7A30.89,30.89,0,0,1,75.06,32.05L85,14.83A49.62,49.62,0,0,0,7.7,76.17C10.57,65,15.46,48,21.1,37.67A31,31,0,0,1,49.63,18.7Z"/><path class="cls-5" d="M49.63,80.55A30.93,30.93,0,0,1,21.1,37.67C15.46,48,10.57,65,7.7,76.17A49.61,49.61,0,0,0,85,84.42L75.06,67.2A30.89,30.89,0,0,1,49.63,80.55Z"/><rect class="cls-6" x="162.2" width="16.8" height="99"/><polygon class="cls-7" points="128.23 54.55 145.41 54.55 179 0 162.2 0 128.23 54.55"/><rect class="cls-8" x="94.71" width="16.8" height="99"/><polygon class="cls-9" points="145.41 54.55 128.23 54.55 94.71 0 111.89 0 145.41 54.55"/><polygon class="cls-10" points="249 0 223 77.56 275 77.56 249 0"/></g></g></svg>