<svg id="Capa_1" data-name="Capa 1" xmlns="http://www.w3.org/2000/svg" viewBox="0 0 135 135"><defs><style>.cls-1{fill:#fff;fill-rule:evenodd;}</style></defs><circle cx="67.5" cy="67.5" r="67.5"/><g id="WA_Logo" data-name="WA Logo"><path class="cls-1" d="M100,35.86a42.83,42.83,0,0,0-67.4,51.65L26.5,109.69l22.7-6A42.76,42.76,0,0,0,69.66,109h0A42.82,42.82,0,0,0,100,35.86ZM69.68,101.72h0a35.56,35.56,0,0,1-18.12-5L50.25,96,36.78,99.52l3.6-13.13-.85-1.34a35.59,35.59,0,1,1,30.15,16.67ZM89.2,75.07c-1.07-.53-6.33-3.12-7.31-3.48s-1.69-.53-2.41.54-2.76,3.48-3.38,4.19-1.25.81-2.32.27a29,29,0,0,1-8.61-5.31,32.28,32.28,0,0,1-6-7.41c-.62-1.07-.06-1.65.47-2.18s1.07-1.25,1.61-1.87A7.58,7.58,0,0,0,62.37,58a2,2,0,0,0-.09-1.87c-.27-.54-2.41-5.8-3.3-7.94s-1.75-1.81-2.41-1.84-1.34,0-2,0a3.94,3.94,0,0,0-2.85,1.34,12,12,0,0,0-3.75,8.92c0,5.27,3.84,10.35,4.37,11.07s7.55,11.52,18.28,16.15a60.33,60.33,0,0,0,6.1,2.25,14.67,14.67,0,0,0,6.74.43c2-.31,6.33-2.59,7.22-5.09s.89-4.64.62-5.09S90.27,75.61,89.2,75.07Z"/></g></svg>